<?xml version="1.0" encoding="UTF-8"?>
<svg enable-background="new 0 0 623.6 623.6" version="1.1" viewBox="0 0 623.6 623.6" xml:space="preserve" xmlns="http://www.w3.org/2000/svg">
<path d="m437.1 239.5c-18.6-14-38.9-27.4-60.5-39.9-21.7-12.5-43.4-23.3-64.8-32.5-35.5-15.2-70-25.6-101.6-31.3-68.6-12.2-123.3-1.4-143.9 34.2 49-84.7 140.6-141.7 245.5-141.7 41.2 0 77.9 42 101.6 107.5 10.9 30.2 19.1 65.3 23.7 103.7z" stroke="#fff" stroke-miterlimit="10" stroke-width="5"/>
<path d="m515 311.8c-20.7 24.5-47 49.2-77.9 72.4 2.8-23.1 4.3-47.3 4.3-72.4s-1.5-49.3-4.3-72.4c-4.6-38.3-12.8-73.5-23.7-103.6-23.7-65.5-60.4-107.5-101.6-107.5 104.9 0 196.5 57 245.5 141.7 20.6 35.7 2.5 88.5-42.3 141.8z" stroke="#fff" stroke-miterlimit="10" stroke-width="5"/>
<path d="m595.3 311.8c0 51.6-13.8 100-37.9 141.8-20.6 35.7-75.3 46.4-143.9 34.2-31.6-5.6-66.1-16.1-101.6-31.3 21.4-9.1 43.1-20 64.8-32.5s41.9-25.9 60.5-39.9c30.9-23.2 57.2-47.8 77.9-72.4 44.8-53.3 62.9-106.1 42.3-141.7 24.1 41.8 37.9 90.2 37.9 141.8z" stroke="#fff" stroke-miterlimit="10" stroke-width="5"/>
<path d="m557.3 453.6c-49 84.7-140.6 141.7-245.5 141.7-41.2 0-77.9-42-101.6-107.5-10.9-30.2-19.1-65.3-23.7-103.6 18.6 14 38.9 27.4 60.5 39.9 21.7 12.5 43.4 23.4 64.8 32.5 35.5 15.2 70 25.7 101.6 31.3 68.6 12.1 123.3 1.3 143.9-34.3z" stroke="#fff" stroke-miterlimit="10" stroke-width="5"/>
<path d="m311.8 595.3c-104.9 0-196.5-57-245.5-141.7-20.6-35.7-2.5-88.4 42.3-141.7 20.7-24.5 47-49.2 77.9-72.4-2.8 23.1-4.3 47.3-4.3 72.4s1.5 49.3 4.3 72.4c4.6 38.3 12.8 73.5 23.7 103.6 23.8 65.4 60.4 107.4 101.6 107.4z" stroke="#fff" stroke-miterlimit="10" stroke-width="5"/>
<path d="m311.8 167.1c-21.4 9.1-43.1 20-64.8 32.5s-41.9 25.9-60.5 39.9c-30.9 23.2-57.2 47.8-77.9 72.4-44.8 53.3-62.9 106.1-42.3 141.7-24.1-41.7-37.9-90.1-37.9-141.8s13.8-100 37.9-141.8c20.6-35.7 75.3-46.4 143.9-34.2 31.6 5.7 66.1 16.1 101.6 31.3z" stroke="#fff" stroke-miterlimit="10" stroke-width="5"/>
</svg>
